<?xml version="1.0" encoding="UTF-8"?>
<svg id="Layer_1" data-name="Layer 1" xmlns="http://www.w3.org/2000/svg" viewBox="0 0 2000 2000">
  <defs>
    <style>
      .cls-1 {
        fill: #fff;
        stroke-width: 0px;
      }
    </style>
  </defs>
  <path class="cls-1" d="M1000.53,1291.02c1.87-18.21,3.46-36.45,5.66-54.62,11.79-97.39,41.14-189.26,89.72-274.44,24.96-43.77,53.26-85.62,86.86-123.44,34.39-38.71,71.27-74.94,112.57-106.3,58.97-44.77,122.76-81.25,192.02-107.65,75.34-28.71,153.25-45.53,233.9-50.07,88.58-4.98,175.37,4.65,260.56,29.2,5.29,1.53,10.5,3.36,18.19,5.83-21.55,8.24-40.56,15.71-59.77,22.67-3.44,1.25-7.65.57-11.5.43-51.31-1.84-102.46-.7-153.39,6.79-53.41,7.85-105.52,20.6-156.22,39.24-75.79,27.85-145.31,66.63-209.09,116.26-36.56,28.45-69.25,60.62-100.54,94.58-41.47,45.01-74.03,95.94-103.58,149.25-25.86,46.65-44.17,96.09-58.99,147.05-1.2,4.12-2.13,8.33-3.04,12.53-.15.68.52,1.53,1.12,3.15,3.47-1.44,6.99-2.73,10.35-4.33,45.62-21.73,88.7-47.57,129.33-77.74,33.67-24.99,65.06-52.41,93.82-82.84,5.55-5.87,10.38-12.62,14.63-19.51,30.58-49.57,62.91-97.92,103.27-140.16,30.35-31.76,62.18-62.11,97.42-88.56,88.33-66.3,186.12-112.48,293.74-137.59,2.51-.59,5.07-1.01,7.62-1.44.79-.13,1.61-.02,5.12-.02-5.04,2.9-8.04,4.77-11.15,6.4-56.64,29.73-110.21,64.01-158,106.82-15.72,14.08-13.08,9.82-7.27,26.73,22.4,65.12,36.18,131.93,40.45,200.72.52,8.45-1.88,14.54-7.33,20.83-42.86,49.51-91.96,92.03-146,128.62-36.7,24.85-74.9,47.52-116.1,64.52-3.97,1.64-7.79,3.63-13.55,6.33-2.23,20.39-5.24,41.67-6.71,63.06-1.6,23.19-1.92,46.48-2.53,69.74-2.09,80.08-23.01,154.95-64.52,223.34-26.46,43.6-58.5,83.19-97.99,116.01-71.58,59.5-153.09,96.76-245.78,108.73-89.3,11.54-175.01-.89-257.42-37.27-35.72-15.77-68.14-36.59-99.11-60.17-42.03-32-75.5-71.42-104.42-115.28-48.6-73.7-70.75-155-72.91-242.75-.91-36.98-4.69-73.89-7.32-110.82-.33-4.69-1.56-9.32-2.53-14.82-5.53-2.64-11.19-5.62-17.06-8.11-33.84-14.32-65.14-33.21-96.26-52.54-38.23-23.74-73.31-51.49-105.81-82.46-19.61-18.68-37.94-38.7-57.09-57.88-6.54-6.55-9-13.53-8.33-23.04,4.79-67.42,18.25-132.99,40.36-196.82,1.13-3.25,3.04-6.42,3.3-9.73.24-2.99-.55-6.63-2.22-9.08-2.12-3.11-5.56-5.33-8.45-7.92-47.83-42.78-101.37-77.08-158.03-106.78-3.74-1.96-7.42-4.03-10.52-7.98,8.54,1.88,17.14,3.51,25.61,5.68,54.78,14.04,107.74,32.87,158.47,58.17,77.04,38.42,145.48,88.21,206.11,149.41,38.15,38.51,72.22,80.12,99.6,126.61,28.62,48.59,68.15,86,112.26,119.53,13.03,9.9,26.1,19.76,39.4,29.3,33.71,24.17,70.18,43.59,107.39,61.69,2.66,1.29,5.51,2.18,9.58,3.77-.54-3.84-.66-6.66-1.36-9.32-12.79-48.92-29.86-96.37-53.43-141.05-27.56-52.25-58.41-102.65-97.43-147.35-31.46-36.04-64.68-70.48-102.15-100.43-58.88-47.04-122.78-85.85-192.64-114.31-74.67-30.41-152.11-50.07-232.75-54.81-36.05-2.12-72.29-1.22-108.44-1.74-3.84-.06-7.99.44-11.45-.83-18.95-6.93-37.73-14.33-58.82-22.43,7.14-2.36,12.26-4.23,17.48-5.76,56.86-16.62,114.87-26.14,174.03-29.42,93.9-5.21,185.63,6.25,275.29,34.41,80.8,25.37,155.17,63.27,223.62,113.3,35.64,26.05,67.88,55.6,98.94,86.76,41.35,41.48,74.94,88.66,105.38,138.44,54.83,89.68,86.13,187.25,99.07,291.12,1.12,8.97,1.82,17.99,2.74,26.99.87,8.53,1.77,17.05,2.65,25.58.44,0,.89.01,1.33.02Z"/>
  <path class="cls-1" d="M384.16,509.7c7.36-8.7,13.19-16.06,19.51-22.96,22.96-25.08,44.79-51.39,69.42-74.73,64.01-60.66,137.03-108.32,217.88-143.55,65.46-28.52,133.74-47.69,204.56-56.96,64.73-8.47,129.61-9.09,194.57-1.51,109.34,12.77,211.19,47.14,305.82,103.52,32.68,19.47,63.14,41.77,92.86,65.34,41.07,32.57,76.96,70.15,109.81,110.82,4.32,5.35,8.95,10.44,13.35,15.72.78.94,1.13,2.23,2.46,4.98-170.56,35.66-314.52,117.65-428.85,248.52-114.71,131.3-175.62,285.4-186.42,459.62-1.86-19.21-3.36-38.46-5.64-57.61-11.66-97.84-40.96-190.16-89.71-275.74-25.15-44.15-53.66-86.36-87.6-124.47-34.15-38.34-70.71-74.27-111.63-105.39-60.33-45.88-125.72-82.99-196.76-109.59-37.07-13.88-74.85-25.78-113.9-33.06-2.49-.46-4.89-1.46-9.72-2.94Z"/>
</svg>